<?xml version="1.0" encoding="UTF-8"?> <svg xmlns="http://www.w3.org/2000/svg" width="22" height="21" viewBox="0 0 22 21" fill="none"> <path d="M11 1.89759C13.7831 1.89759 14.1627 1.89759 15.3012 1.89759C16.3133 1.89759 16.8193 2.1506 17.1988 2.27711C17.7048 2.53012 18.0843 2.65663 18.4639 3.03615C18.8434 3.41566 19.0964 3.79518 19.2229 4.30121C19.3494 4.68072 19.4759 5.18675 19.6024 6.1988C19.6024 7.33735 19.6024 7.59036 19.6024 10.5C19.6024 13.4096 19.6024 13.6627 19.6024 14.8012C19.6024 15.8133 19.3494 16.3193 19.2229 16.6988C18.9699 17.2048 18.8434 17.5843 18.4639 17.9639C18.0843 18.3434 17.7048 18.5964 17.1988 18.7229C16.8193 18.8494 16.3133 18.9759 15.3012 19.1024C14.1627 19.1024 13.9096 19.1024 11 19.1024C8.09036 19.1024 7.83735 19.1024 6.6988 19.1024C5.68675 19.1024 5.18072 18.8494 4.80121 18.7229C4.29518 18.4699 3.91566 18.3434 3.53615 17.9639C3.15663 17.5843 2.90361 17.2048 2.77711 16.6988C2.6506 16.3193 2.5241 15.8133 2.39759 14.8012C2.39759 13.6627 2.39759 13.4096 2.39759 10.5C2.39759 7.59036 2.39759 7.33735 2.39759 6.1988C2.39759 5.18675 2.6506 4.68072 2.77711 4.30121C3.03012 3.79518 3.15663 3.41566 3.53615 3.03615C3.91566 2.65663 4.29518 2.40361 4.80121 2.27711C5.18072 2.1506 5.68675 2.0241 6.6988 1.89759C7.83735 1.89759 8.21687 1.89759 11 1.89759ZM11 0C8.09036 0 7.83735 0 6.6988 0C5.56024 0 4.80121 0.253013 4.16868 0.506025C3.53615 0.759037 2.90362 1.13856 2.27109 1.77109C1.63856 2.40362 1.38554 2.90964 1.00602 3.66868C0.753013 4.30121 0.626506 5.06024 0.5 6.1988C0.5 7.33735 0.5 7.71687 0.5 10.5C0.5 13.4096 0.5 13.6627 0.5 14.8012C0.5 15.9398 0.753013 16.6988 1.00602 17.3313C1.25904 17.9639 1.63856 18.5964 2.27109 19.2289C2.90362 19.8614 3.40964 20.1145 4.16868 20.494C4.80121 20.747 5.56024 20.8735 6.6988 21C7.83735 21 8.21687 21 11 21C13.7831 21 14.1627 21 15.3012 21C16.4398 21 17.1988 20.747 17.8313 20.494C18.4639 20.241 19.0964 19.8614 19.7289 19.2289C20.3614 18.5964 20.6145 18.0904 20.994 17.3313C21.247 16.6988 21.3735 15.9398 21.5 14.8012C21.5 13.6627 21.5 13.2831 21.5 10.5C21.5 7.71687 21.5 7.33735 21.5 6.1988C21.5 5.06024 21.247 4.30121 20.994 3.66868C20.741 3.03615 20.3614 2.40362 19.7289 1.77109C19.0964 1.13856 18.5904 0.885543 17.8313 0.506025C17.1988 0.253013 16.4398 0.126506 15.3012 0C14.1627 0 13.9096 0 11 0Z" fill="white"></path> <path d="M11 5.06024C7.96386 5.06024 5.56024 7.46386 5.56024 10.5C5.56024 13.5361 7.96386 15.9398 11 15.9398C14.0361 15.9398 16.4398 13.5361 16.4398 10.5C16.4398 7.46386 14.0361 5.06024 11 5.06024ZM11 14.0422C9.10241 14.0422 7.45783 12.5241 7.45783 10.5C7.45783 8.60241 8.9759 6.95783 11 6.95783C12.8976 6.95783 14.5422 8.4759 14.5422 10.5C14.5422 12.3976 12.8976 14.0422 11 14.0422Z" fill="white"></path> <path d="M16.5663 6.1988C17.2649 6.1988 17.8313 5.63241 17.8313 4.93374C17.8313 4.23506 17.2649 3.66868 16.5663 3.66868C15.8676 3.66868 15.3012 4.23506 15.3012 4.93374C15.3012 5.63241 15.8676 6.1988 16.5663 6.1988Z" fill="white"></path> </svg> 