<?xml version="1.0" encoding="UTF-8" standalone="no"?> <svg xmlns:dc="http://purl.org/dc/elements/1.1/" xmlns:cc="http://creativecommons.org/ns#" xmlns:rdf="http://www.w3.org/1999/02/22-rdf-syntax-ns#" xmlns:svg="http://www.w3.org/2000/svg" xmlns="http://www.w3.org/2000/svg" xmlns:sodipodi="http://sodipodi.sourceforge.net/DTD/sodipodi-0.dtd" xmlns:inkscape="http://www.inkscape.org/namespaces/inkscape" id="svg3409" viewBox="0 0 1000.008 618.03103" height="618.03101" width="1000.008" inkscape:version="0.92.2 5c3e80d, 2017-08-06" sodipodi:docname="MasterCard.svg"> <defs id="defs3411"></defs> <metadata id="metadata3414"></metadata> <g transform="matrix(3.3557321,0,0,3.3557321,-1551.7864,-2007.0469)" id="layer1"> <g transform="matrix(2.5579399,0,0,2.5579399,884.90115,-11.427398)" id="g13"> <g transform="translate(-502.86126,-22.613497)" id="XMLID_328_"> <rect style="fill:#ff5f00" id="rect19" height="56.599998" width="31.5" class="st1" y="268.60001" x="380.20001"></rect> <path style="fill:#eb001b" d="m 382.2,296.9 c 0,-11.5 5.4,-21.7 13.7,-28.3 -6.1,-4.8 -13.8,-7.7 -22.2,-7.7 -19.9,0 -36,16.1 -36,36 0,19.9 16.1,36 36,36 8.4,0 16.1,-2.9 22.2,-7.7 -8.3,-6.5 -13.7,-16.8 -13.7,-28.3 z" class="st2" id="XMLID_330_" inkscape:connector-curvature="0"></path> <path style="fill:#f79e1b" id="path22" d="m 454.2,296.9 c 0,19.9 -16.1,36 -36,36 -8.4,0 -16.1,-2.9 -22.2,-7.7 8.4,-6.6 13.7,-16.8 13.7,-28.3 0,-11.5 -5.4,-21.7 -13.7,-28.3 6.1,-4.8 13.8,-7.7 22.2,-7.7 19.9,0 36,16.2 36,36 z" class="st3" inkscape:connector-curvature="0"></path> </g> </g> </g> </svg> 