<?xml version="1.0" encoding="UTF-8"?> <svg xmlns="http://www.w3.org/2000/svg" width="35" height="20" viewBox="0 0 35 20" fill="none"> <path fill-rule="evenodd" clip-rule="evenodd" d="M17.114 19.8743H19.2282C19.2282 19.8743 19.8625 19.7686 20.1797 19.4514C20.4968 19.1343 20.4968 18.5 20.4968 18.5C20.4968 18.5 20.4968 15.7514 21.7654 15.3286C23.0339 14.9057 24.7254 18.0771 26.4168 19.24C27.6854 20.1914 28.6368 19.98 28.6368 19.98L33.2882 19.8743C33.2882 19.8743 35.7197 19.7686 34.5568 17.76C34.4511 17.6543 33.9225 16.3857 31.0682 13.7428C28.1082 10.9943 28.5311 11.5228 32.0197 6.76571C34.1339 3.91143 34.9797 2.22 34.7682 1.37428C34.5568 0.634284 32.9711 0.845713 32.9711 0.845713H27.6854C27.6854 0.845713 27.2625 0.739999 27.0511 0.951427C26.7339 1.16286 26.6282 1.48 26.6282 1.48C26.6282 1.48 25.7825 3.7 24.7254 5.60285C22.3997 9.51428 21.4482 9.72571 21.1311 9.51428C20.2854 8.98571 20.4968 7.18856 20.4968 6.02571C20.4968 2.22 21.1311 0.634284 19.334 0.211427C18.8054 0.105713 18.3825 0 16.9025 0C14.9997 0 13.414 -4.09569e-07 12.5682 0.422856C11.934 0.739999 11.5111 1.37428 11.8282 1.37428C12.1454 1.37428 12.9911 1.58571 13.414 2.11428C13.8368 3.06571 13.8368 4.65142 13.8368 4.65142C13.8368 4.65142 14.154 9.19713 13.0968 9.72571C12.3568 10.1486 11.4054 9.30285 9.2911 5.70857C8.23396 3.91143 7.38825 1.79714 7.38825 1.79714C7.38825 1.79714 7.28253 1.37429 6.96539 1.16286C6.64825 0.951428 6.11968 0.845713 6.11968 0.845713H1.15111C1.15111 0.845713 0.411111 0.845714 0.0939682 1.16286C-0.11746 1.48 0.0939682 2.00857 0.0939682 2.00857C0.0939682 2.00857 4.00539 11.1 8.44539 15.7514C12.5682 20.1914 17.114 19.8743 17.114 19.8743V19.8743Z" fill="white"></path> </svg> 