<?xml version="1.0" encoding="UTF-8"?> <svg xmlns="http://www.w3.org/2000/svg" width="21" height="20" viewBox="0 0 21 20" fill="none"> <path fill-rule="evenodd" clip-rule="evenodd" d="M17.5 2.875C15.625 1 13.125 0 10.5 0C5 0 0.5 4.5 0.5 10C0.5 11.75 1.00001 13.5 1.87501 15L0.5 20L5.75002 18.625C7.25002 19.375 8.875 19.875 10.5 19.875C16 19.875 20.5 15.375 20.5 9.875C20.5 7.25 19.375 4.75 17.5 2.875ZM10.5 18.25C9 18.25 7.50001 17.875 6.25001 17.125L5.99999 17L2.87499 17.875L3.75001 14.875L3.49999 14.5C2.62499 13.125 2.24999 11.625 2.24999 10.125C2.24999 5.625 6 1.875 10.5 1.875C12.75 1.875 14.75 2.75 16.375 4.25C18 5.875 18.75 7.875 18.75 10.125C18.75 14.5 15.125 18.25 10.5 18.25ZM15 12C14.75 11.875 13.5 11.25 13.25 11.25C13 11.125 12.875 11.125 12.75 11.375C12.625 11.625 12.125 12.125 12 12.375C11.875 12.5 11.75 12.5 11.5 12.5C11.25 12.375 10.5 12.125 9.50002 11.25C8.75002 10.625 8.25001 9.75 8.12501 9.5C8.00001 9.25 8.12502 9.125 8.25002 9C8.37502 8.875 8.5 8.75 8.625 8.625C8.75 8.5 8.75002 8.375 8.87502 8.25C9.00002 8.125 8.87502 8 8.87502 7.875C8.87502 7.75 8.37501 6.5 8.12501 6C8.00001 5.625 7.75002 5.625 7.62502 5.625C7.50002 5.625 7.37498 5.625 7.12498 5.625C6.99998 5.625 6.74998 5.625 6.49998 5.875C6.24998 6.125 5.62501 6.75 5.62501 8C5.62501 9.25 6.49999 10.375 6.62499 10.625C6.74999 10.75 8.37498 13.375 10.875 14.375C13 15.25 13.375 15 13.875 15C14.375 15 15.375 14.375 15.5 13.875C15.75 13.25 15.75 12.75 15.625 12.75C15.5 12.125 15.25 12.125 15 12Z" fill="white"></path> </svg> 